<mxfile host="65bd71144e">
    <diagram id="CGz5gvUMxi6If3MVP1VV" name="image">
        <mxGraphModel dx="-2019" dy="1471" grid="1" gridSize="10" guides="1" tooltips="1" connect="1" arrows="1" fold="1" page="1" pageScale="1" pageWidth="827" pageHeight="1169" math="0" shadow="0">
            <root>
                <mxCell id="0"/>
                <mxCell id="1" parent="0"/>
                <mxCell id="mNiAzSfXenX0VxuWbp-_-1" value="" style="sketch=0;pointerEvents=1;shadow=0;dashed=0;html=1;strokeColor=none;fillColor=#505050;labelPosition=center;verticalLabelPosition=bottom;verticalAlign=top;outlineConnect=0;align=center;shape=mxgraph.office.users.user;fontSize=14;fontColor=#B3B3B3;strokeWidth=0;" parent="1" vertex="1">
                    <mxGeometry x="2510" y="-920" width="40" height="40" as="geometry"/>
                </mxCell>
                <mxCell id="mNiAzSfXenX0VxuWbp-_-13" value="" style="sketch=0;pointerEvents=1;shadow=0;dashed=0;html=1;strokeColor=none;fillColor=#505050;labelPosition=center;verticalLabelPosition=bottom;verticalAlign=top;outlineConnect=0;align=center;shape=mxgraph.office.concepts.application_web;fontSize=14;fontColor=#B3B3B3;strokeWidth=1;perimeterSpacing=0;labelBackgroundColor=none;labelBorderColor=none;" parent="1" vertex="1">
                    <mxGeometry x="2530" y="-940" width="70" height="60" as="geometry"/>
                </mxCell>
                <mxCell id="zcIfz7Zv4hoTwlCRy202-1" value="Native&lt;br style=&quot;font-size: 12px;&quot;&gt;Applications" style="rounded=1;whiteSpace=wrap;html=1;fillColor=#fff2cc;strokeColor=#d6b656;fontSize=12;" parent="1" vertex="1">
                    <mxGeometry x="2500" y="-860" width="100" height="60" as="geometry"/>
                </mxCell>
                <mxCell id="zcIfz7Zv4hoTwlCRy202-2" value="UserAgent based Applications" style="rounded=1;whiteSpace=wrap;html=1;fillColor=#fff2cc;strokeColor=#d6b656;fontSize=12;" parent="1" vertex="1">
                    <mxGeometry x="2500" y="-790" width="100" height="60" as="geometry"/>
                </mxCell>
                <mxCell id="zcIfz7Zv4hoTwlCRy202-3" value="Systems" style="rounded=1;whiteSpace=wrap;html=1;fillColor=#fff2cc;strokeColor=#d6b656;fontSize=12;" parent="1" vertex="1">
                    <mxGeometry x="2500" y="-720" width="100" height="60" as="geometry"/>
                </mxCell>
                <mxCell id="zcIfz7Zv4hoTwlCRy202-5" value="Edge" style="rounded=0;whiteSpace=wrap;html=1;fontSize=14;fillColor=#ffe6cc;strokeColor=#d79b00;" parent="1" vertex="1">
                    <mxGeometry x="2660" y="-850" width="80" height="40" as="geometry"/>
                </mxCell>
                <mxCell id="zcIfz7Zv4hoTwlCRy202-11" value="Gateway" style="rounded=1;whiteSpace=wrap;html=1;fontSize=22;fillColor=#dae8fc;strokeColor=#6c8ebf;fontStyle=1" parent="1" vertex="1">
                    <mxGeometry x="2940" y="-790" width="120" height="60" as="geometry"/>
                </mxCell>
                <mxCell id="htU3-qcmnUcGtehg87TJ-3" style="edgeStyle=orthogonalEdgeStyle;curved=1;rounded=0;orthogonalLoop=1;jettySize=auto;html=1;exitX=0.25;exitY=1;exitDx=0;exitDy=0;entryX=0.25;entryY=0;entryDx=0;entryDy=0;" parent="1" source="zcIfz7Zv4hoTwlCRy202-12" target="zcIfz7Zv4hoTwlCRy202-13" edge="1">
                    <mxGeometry relative="1" as="geometry"/>
                </mxCell>
                <mxCell id="htU3-qcmnUcGtehg87TJ-5" style="edgeStyle=orthogonalEdgeStyle;curved=1;rounded=0;orthogonalLoop=1;jettySize=auto;html=1;entryX=0.75;entryY=0;entryDx=0;entryDy=0;exitX=0;exitY=0.25;exitDx=0;exitDy=0;" parent="1" source="zcIfz7Zv4hoTwlCRy202-12" target="zcIfz7Zv4hoTwlCRy202-11" edge="1">
                    <mxGeometry relative="1" as="geometry"/>
                </mxCell>
                <mxCell id="zcIfz7Zv4hoTwlCRy202-12" value="Synchronous Systems" style="rounded=0;whiteSpace=wrap;html=1;fontSize=14;fillColor=#d5e8d4;strokeColor=#82b366;verticalAlign=top;" parent="1" vertex="1">
                    <mxGeometry x="3200" y="-960" width="200" height="190" as="geometry"/>
                </mxCell>
                <mxCell id="htU3-qcmnUcGtehg87TJ-4" style="edgeStyle=orthogonalEdgeStyle;curved=1;rounded=0;orthogonalLoop=1;jettySize=auto;html=1;exitX=0.75;exitY=0;exitDx=0;exitDy=0;entryX=0.75;entryY=1;entryDx=0;entryDy=0;" parent="1" source="zcIfz7Zv4hoTwlCRy202-13" target="zcIfz7Zv4hoTwlCRy202-12" edge="1">
                    <mxGeometry relative="1" as="geometry"/>
                </mxCell>
                <mxCell id="htU3-qcmnUcGtehg87TJ-6" style="edgeStyle=orthogonalEdgeStyle;curved=1;rounded=0;orthogonalLoop=1;jettySize=auto;html=1;entryX=0.75;entryY=1;entryDx=0;entryDy=0;exitX=0;exitY=0.75;exitDx=0;exitDy=0;" parent="1" source="zcIfz7Zv4hoTwlCRy202-13" target="zcIfz7Zv4hoTwlCRy202-11" edge="1">
                    <mxGeometry relative="1" as="geometry">
                        <mxPoint x="3220" y="-680" as="sourcePoint"/>
                    </mxGeometry>
                </mxCell>
                <mxCell id="zcIfz7Zv4hoTwlCRy202-13" value="Asynchronous Systems" style="rounded=0;whiteSpace=wrap;html=1;fontSize=14;fillColor=#d5e8d4;strokeColor=#82b366;verticalAlign=top;" parent="1" vertex="1">
                    <mxGeometry x="3200" y="-750" width="200" height="190" as="geometry"/>
                </mxCell>
                <mxCell id="zcIfz7Zv4hoTwlCRy202-14" value="Batch&lt;br&gt;Systems" style="rounded=0;whiteSpace=wrap;html=1;fontSize=14;fillColor=#e1d5e7;strokeColor=#9673a6;" parent="1" vertex="1">
                    <mxGeometry x="2940" y="-940" width="120" height="60" as="geometry"/>
                </mxCell>
                <mxCell id="zcIfz7Zv4hoTwlCRy202-16" value="WAF" style="rounded=0;whiteSpace=wrap;html=1;fontSize=14;fillColor=#ffe6cc;strokeColor=#d79b00;" parent="1" vertex="1">
                    <mxGeometry x="2660" y="-780" width="80" height="40" as="geometry"/>
                </mxCell>
                <mxCell id="zcIfz7Zv4hoTwlCRy202-20" value="" style="endArrow=blockThin;html=1;rounded=0;fontSize=14;exitX=1;exitY=0.5;exitDx=0;exitDy=0;entryX=0;entryY=0.5;entryDx=0;entryDy=0;endFill=1;edgeStyle=orthogonalEdgeStyle;curved=1;" parent="1" source="zcIfz7Zv4hoTwlCRy202-2" target="zcIfz7Zv4hoTwlCRy202-16" edge="1">
                    <mxGeometry width="50" height="50" relative="1" as="geometry">
                        <mxPoint x="2790" y="-840" as="sourcePoint"/>
                        <mxPoint x="2840" y="-760" as="targetPoint"/>
                    </mxGeometry>
                </mxCell>
                <mxCell id="zcIfz7Zv4hoTwlCRy202-22" value="API Gateway&lt;br&gt;or BFF" style="rounded=1;whiteSpace=wrap;html=1;fontSize=14;fillColor=#ffe6cc;strokeColor=#d79b00;" parent="1" vertex="1">
                    <mxGeometry x="2830" y="-880" width="90" height="40" as="geometry"/>
                </mxCell>
                <mxCell id="zcIfz7Zv4hoTwlCRy202-28" value="CDN" style="rounded=0;whiteSpace=wrap;html=1;fontSize=14;fillColor=#ffe6cc;strokeColor=#d79b00;" parent="1" vertex="1">
                    <mxGeometry x="2660" y="-710" width="80" height="40" as="geometry"/>
                </mxCell>
                <mxCell id="zcIfz7Zv4hoTwlCRy202-30" value="" style="endArrow=blockThin;html=1;rounded=0;fontSize=14;exitX=1;exitY=0.5;exitDx=0;exitDy=0;entryX=0;entryY=0.5;entryDx=0;entryDy=0;endFill=1;edgeStyle=orthogonalEdgeStyle;curved=1;" parent="1" source="zcIfz7Zv4hoTwlCRy202-2" target="zcIfz7Zv4hoTwlCRy202-5" edge="1">
                    <mxGeometry width="50" height="50" relative="1" as="geometry">
                        <mxPoint x="2610" y="-750" as="sourcePoint"/>
                        <mxPoint x="2670" y="-750" as="targetPoint"/>
                    </mxGeometry>
                </mxCell>
                <mxCell id="zcIfz7Zv4hoTwlCRy202-31" value="" style="endArrow=blockThin;html=1;rounded=0;fontSize=14;exitX=1;exitY=0.5;exitDx=0;exitDy=0;entryX=0;entryY=0.5;entryDx=0;entryDy=0;endFill=1;edgeStyle=orthogonalEdgeStyle;curved=1;" parent="1" source="zcIfz7Zv4hoTwlCRy202-2" target="zcIfz7Zv4hoTwlCRy202-28" edge="1">
                    <mxGeometry width="50" height="50" relative="1" as="geometry">
                        <mxPoint x="2610" y="-750" as="sourcePoint"/>
                        <mxPoint x="2670" y="-820" as="targetPoint"/>
                    </mxGeometry>
                </mxCell>
                <mxCell id="zcIfz7Zv4hoTwlCRy202-32" value="" style="endArrow=blockThin;html=1;rounded=0;fontSize=14;exitX=1;exitY=0.5;exitDx=0;exitDy=0;entryX=0;entryY=0.5;entryDx=0;entryDy=0;endFill=1;edgeStyle=orthogonalEdgeStyle;curved=1;" parent="1" source="zcIfz7Zv4hoTwlCRy202-3" target="zcIfz7Zv4hoTwlCRy202-28" edge="1">
                    <mxGeometry width="50" height="50" relative="1" as="geometry">
                        <mxPoint x="2610" y="-750" as="sourcePoint"/>
                        <mxPoint x="2670" y="-680" as="targetPoint"/>
                    </mxGeometry>
                </mxCell>
                <mxCell id="zcIfz7Zv4hoTwlCRy202-33" value="" style="endArrow=blockThin;html=1;rounded=0;fontSize=14;exitX=1;exitY=0.5;exitDx=0;exitDy=0;entryX=0;entryY=0.5;entryDx=0;entryDy=0;endFill=1;edgeStyle=orthogonalEdgeStyle;curved=1;" parent="1" source="zcIfz7Zv4hoTwlCRy202-3" target="zcIfz7Zv4hoTwlCRy202-16" edge="1">
                    <mxGeometry width="50" height="50" relative="1" as="geometry">
                        <mxPoint x="2610" y="-680" as="sourcePoint"/>
                        <mxPoint x="2670" y="-680" as="targetPoint"/>
                    </mxGeometry>
                </mxCell>
                <mxCell id="zcIfz7Zv4hoTwlCRy202-34" value="" style="endArrow=blockThin;html=1;rounded=0;fontSize=14;exitX=1;exitY=0.5;exitDx=0;exitDy=0;entryX=0;entryY=0.5;entryDx=0;entryDy=0;endFill=1;edgeStyle=orthogonalEdgeStyle;curved=1;" parent="1" source="zcIfz7Zv4hoTwlCRy202-3" target="zcIfz7Zv4hoTwlCRy202-5" edge="1">
                    <mxGeometry width="50" height="50" relative="1" as="geometry">
                        <mxPoint x="2610" y="-680" as="sourcePoint"/>
                        <mxPoint x="2670" y="-750" as="targetPoint"/>
                    </mxGeometry>
                </mxCell>
                <mxCell id="zcIfz7Zv4hoTwlCRy202-35" value="" style="endArrow=blockThin;html=1;rounded=0;fontSize=14;exitX=1;exitY=0.5;exitDx=0;exitDy=0;entryX=0;entryY=0.5;entryDx=0;entryDy=0;endFill=1;edgeStyle=orthogonalEdgeStyle;curved=1;" parent="1" source="zcIfz7Zv4hoTwlCRy202-1" target="zcIfz7Zv4hoTwlCRy202-5" edge="1">
                    <mxGeometry width="50" height="50" relative="1" as="geometry">
                        <mxPoint x="2610" y="-680" as="sourcePoint"/>
                        <mxPoint x="2670" y="-680" as="targetPoint"/>
                    </mxGeometry>
                </mxCell>
                <mxCell id="zcIfz7Zv4hoTwlCRy202-36" value="" style="endArrow=blockThin;html=1;rounded=0;fontSize=14;exitX=1;exitY=0.5;exitDx=0;exitDy=0;entryX=0;entryY=0.5;entryDx=0;entryDy=0;endFill=1;edgeStyle=orthogonalEdgeStyle;curved=1;" parent="1" source="zcIfz7Zv4hoTwlCRy202-1" target="zcIfz7Zv4hoTwlCRy202-16" edge="1">
                    <mxGeometry width="50" height="50" relative="1" as="geometry">
                        <mxPoint x="2610" y="-820" as="sourcePoint"/>
                        <mxPoint x="2670" y="-820" as="targetPoint"/>
                    </mxGeometry>
                </mxCell>
                <mxCell id="zcIfz7Zv4hoTwlCRy202-37" value="" style="endArrow=blockThin;html=1;rounded=0;fontSize=14;exitX=1;exitY=0.5;exitDx=0;exitDy=0;entryX=0;entryY=0.5;entryDx=0;entryDy=0;endFill=1;edgeStyle=orthogonalEdgeStyle;curved=1;" parent="1" source="zcIfz7Zv4hoTwlCRy202-1" target="zcIfz7Zv4hoTwlCRy202-28" edge="1">
                    <mxGeometry width="50" height="50" relative="1" as="geometry">
                        <mxPoint x="2610" y="-820" as="sourcePoint"/>
                        <mxPoint x="2670" y="-750" as="targetPoint"/>
                    </mxGeometry>
                </mxCell>
                <mxCell id="zcIfz7Zv4hoTwlCRy202-38" value="" style="endArrow=blockThin;html=1;rounded=0;fontSize=14;exitX=1;exitY=0.5;exitDx=0;exitDy=0;entryX=0;entryY=0.5;entryDx=0;entryDy=0;endFill=1;edgeStyle=orthogonalEdgeStyle;curved=1;" parent="1" source="zcIfz7Zv4hoTwlCRy202-5" target="zcIfz7Zv4hoTwlCRy202-22" edge="1">
                    <mxGeometry width="50" height="50" relative="1" as="geometry">
                        <mxPoint x="2930" y="-640" as="sourcePoint"/>
                        <mxPoint x="2990" y="-640" as="targetPoint"/>
                        <Array as="points">
                            <mxPoint x="2780" y="-830"/>
                            <mxPoint x="2780" y="-860"/>
                        </Array>
                    </mxGeometry>
                </mxCell>
                <mxCell id="zcIfz7Zv4hoTwlCRy202-39" value="" style="endArrow=blockThin;html=1;rounded=0;fontSize=14;exitX=1;exitY=0.5;exitDx=0;exitDy=0;endFill=1;edgeStyle=orthogonalEdgeStyle;curved=1;entryX=0.25;entryY=0;entryDx=0;entryDy=0;" parent="1" source="zcIfz7Zv4hoTwlCRy202-22" target="zcIfz7Zv4hoTwlCRy202-11" edge="1">
                    <mxGeometry width="50" height="50" relative="1" as="geometry">
                        <mxPoint x="2750" y="-820" as="sourcePoint"/>
                        <mxPoint x="2860" y="-740" as="targetPoint"/>
                    </mxGeometry>
                </mxCell>
                <mxCell id="zcIfz7Zv4hoTwlCRy202-40" value="" style="endArrow=blockThin;html=1;rounded=0;fontSize=14;exitX=1;exitY=0.5;exitDx=0;exitDy=0;endFill=1;edgeStyle=orthogonalEdgeStyle;curved=1;entryX=0;entryY=0.5;entryDx=0;entryDy=0;" parent="1" source="zcIfz7Zv4hoTwlCRy202-16" target="zcIfz7Zv4hoTwlCRy202-11" edge="1">
                    <mxGeometry width="50" height="50" relative="1" as="geometry">
                        <mxPoint x="2920" y="-820" as="sourcePoint"/>
                        <mxPoint x="2980" y="-755" as="targetPoint"/>
                    </mxGeometry>
                </mxCell>
                <mxCell id="zcIfz7Zv4hoTwlCRy202-41" value="" style="endArrow=blockThin;html=1;rounded=0;fontSize=14;exitX=1;exitY=0.5;exitDx=0;exitDy=0;endFill=1;edgeStyle=orthogonalEdgeStyle;curved=1;entryX=0;entryY=0.5;entryDx=0;entryDy=0;" parent="1" source="zcIfz7Zv4hoTwlCRy202-28" target="zcIfz7Zv4hoTwlCRy202-11" edge="1">
                    <mxGeometry width="50" height="50" relative="1" as="geometry">
                        <mxPoint x="2750" y="-750" as="sourcePoint"/>
                        <mxPoint x="2980" y="-740" as="targetPoint"/>
                    </mxGeometry>
                </mxCell>
                <mxCell id="zcIfz7Zv4hoTwlCRy202-42" value="" style="endArrow=blockThin;html=1;rounded=0;fontSize=14;exitX=1;exitY=0.5;exitDx=0;exitDy=0;entryX=0;entryY=0.5;entryDx=0;entryDy=0;endFill=1;edgeStyle=orthogonalEdgeStyle;curved=1;" parent="1" source="zcIfz7Zv4hoTwlCRy202-5" target="zcIfz7Zv4hoTwlCRy202-11" edge="1">
                    <mxGeometry width="50" height="50" relative="1" as="geometry">
                        <mxPoint x="2750" y="-820" as="sourcePoint"/>
                        <mxPoint x="2790" y="-820" as="targetPoint"/>
                    </mxGeometry>
                </mxCell>
                <mxCell id="zcIfz7Zv4hoTwlCRy202-43" value="" style="endArrow=blockThin;html=1;rounded=0;fontSize=14;exitX=1;exitY=0.5;exitDx=0;exitDy=0;endFill=1;edgeStyle=orthogonalEdgeStyle;curved=1;entryX=0;entryY=0.5;entryDx=0;entryDy=0;" parent="1" source="zcIfz7Zv4hoTwlCRy202-16" target="zcIfz7Zv4hoTwlCRy202-22" edge="1">
                    <mxGeometry width="50" height="50" relative="1" as="geometry">
                        <mxPoint x="2750" y="-750" as="sourcePoint"/>
                        <mxPoint x="2950" y="-750" as="targetPoint"/>
                        <Array as="points">
                            <mxPoint x="2790" y="-760"/>
                            <mxPoint x="2790" y="-860"/>
                        </Array>
                    </mxGeometry>
                </mxCell>
                <mxCell id="zcIfz7Zv4hoTwlCRy202-44" value="" style="endArrow=blockThin;html=1;rounded=0;fontSize=14;exitX=1;exitY=0.5;exitDx=0;exitDy=0;endFill=1;edgeStyle=orthogonalEdgeStyle;curved=1;entryX=0;entryY=0.5;entryDx=0;entryDy=0;" parent="1" source="zcIfz7Zv4hoTwlCRy202-28" target="zcIfz7Zv4hoTwlCRy202-22" edge="1">
                    <mxGeometry width="50" height="50" relative="1" as="geometry">
                        <mxPoint x="2750" y="-750" as="sourcePoint"/>
                        <mxPoint x="2830" y="-850" as="targetPoint"/>
                        <Array as="points">
                            <mxPoint x="2810" y="-690"/>
                            <mxPoint x="2810" y="-860"/>
                        </Array>
                    </mxGeometry>
                </mxCell>
                <mxCell id="zcIfz7Zv4hoTwlCRy202-45" value="" style="endArrow=blockThin;html=1;rounded=0;fontSize=14;exitX=1;exitY=0.5;exitDx=0;exitDy=0;endFill=1;edgeStyle=orthogonalEdgeStyle;curved=1;entryX=0;entryY=0.5;entryDx=0;entryDy=0;" parent="1" source="zcIfz7Zv4hoTwlCRy202-11" target="zcIfz7Zv4hoTwlCRy202-12" edge="1">
                    <mxGeometry width="50" height="50" relative="1" as="geometry">
                        <mxPoint x="2900" y="-850" as="sourcePoint"/>
                        <mxPoint x="2950" y="-765" as="targetPoint"/>
                    </mxGeometry>
                </mxCell>
                <mxCell id="zcIfz7Zv4hoTwlCRy202-46" value="" style="endArrow=blockThin;html=1;rounded=0;fontSize=14;exitX=1;exitY=0.5;exitDx=0;exitDy=0;endFill=1;edgeStyle=orthogonalEdgeStyle;curved=1;" parent="1" source="zcIfz7Zv4hoTwlCRy202-11" target="zcIfz7Zv4hoTwlCRy202-13" edge="1">
                    <mxGeometry width="50" height="50" relative="1" as="geometry">
                        <mxPoint x="3070" y="-750" as="sourcePoint"/>
                        <mxPoint x="3150" y="-800" as="targetPoint"/>
                    </mxGeometry>
                </mxCell>
                <mxCell id="zcIfz7Zv4hoTwlCRy202-47" value="" style="endArrow=blockThin;html=1;rounded=0;fontSize=14;endFill=1;edgeStyle=orthogonalEdgeStyle;curved=1;entryX=0;entryY=0.5;entryDx=0;entryDy=0;exitX=1;exitY=0.5;exitDx=0;exitDy=0;" parent="1" source="zcIfz7Zv4hoTwlCRy202-14" target="zcIfz7Zv4hoTwlCRy202-12" edge="1">
                    <mxGeometry width="50" height="50" relative="1" as="geometry">
                        <mxPoint x="3140" y="-910" as="sourcePoint"/>
                        <mxPoint x="3150" y="-800" as="targetPoint"/>
                    </mxGeometry>
                </mxCell>
                <mxCell id="zcIfz7Zv4hoTwlCRy202-48" value="" style="endArrow=blockThin;html=1;rounded=0;fontSize=14;exitX=1;exitY=0.5;exitDx=0;exitDy=0;endFill=1;edgeStyle=orthogonalEdgeStyle;curved=1;entryX=0;entryY=0.5;entryDx=0;entryDy=0;" parent="1" source="zcIfz7Zv4hoTwlCRy202-14" target="zcIfz7Zv4hoTwlCRy202-13" edge="1">
                    <mxGeometry width="50" height="50" relative="1" as="geometry">
                        <mxPoint x="3010" y="-850" as="sourcePoint"/>
                        <mxPoint x="3190" y="-650" as="targetPoint"/>
                    </mxGeometry>
                </mxCell>
                <mxCell id="zcIfz7Zv4hoTwlCRy202-49" value="" style="endArrow=blockThin;html=1;rounded=0;fontSize=14;exitX=0.5;exitY=1;exitDx=0;exitDy=0;endFill=1;edgeStyle=orthogonalEdgeStyle;curved=1;entryX=0.5;entryY=0;entryDx=0;entryDy=0;" parent="1" source="zcIfz7Zv4hoTwlCRy202-14" target="zcIfz7Zv4hoTwlCRy202-11" edge="1">
                    <mxGeometry width="50" height="50" relative="1" as="geometry">
                        <mxPoint x="3010" y="-850" as="sourcePoint"/>
                        <mxPoint x="3020" y="-830" as="targetPoint"/>
                    </mxGeometry>
                </mxCell>
                <mxCell id="zcIfz7Zv4hoTwlCRy202-55" value="On-Premise, VMs, Containers, SaaS ...." style="rounded=0;whiteSpace=wrap;html=1;fontSize=22;fillColor=#f5f5f5;fontColor=#333333;strokeColor=#666666;" parent="1" vertex="1">
                    <mxGeometry x="2660" y="-520" width="740" height="40" as="geometry"/>
                </mxCell>
                <mxCell id="mzW2ONNBBGuIxnCnDbt2-4" value="Applications" style="rounded=0;whiteSpace=wrap;html=1;fontSize=14;strokeColor=#4D4D4D;" parent="1" vertex="1">
                    <mxGeometry x="3260" y="-920" width="80" height="60" as="geometry"/>
                </mxCell>
                <mxCell id="mzW2ONNBBGuIxnCnDbt2-5" value="Serverless" style="rounded=0;whiteSpace=wrap;html=1;fontSize=14;strokeColor=#4D4D4D;" parent="1" vertex="1">
                    <mxGeometry x="3260" y="-850" width="80" height="60" as="geometry"/>
                </mxCell>
                <mxCell id="9RpMeYJEBzj-ARkrh1fK-3" value="Applications" style="rounded=0;whiteSpace=wrap;html=1;fontSize=14;strokeColor=#4D4D4D;" parent="1" vertex="1">
                    <mxGeometry x="3210" y="-640" width="80" height="60" as="geometry"/>
                </mxCell>
                <mxCell id="9RpMeYJEBzj-ARkrh1fK-4" value="Serverless" style="rounded=0;whiteSpace=wrap;html=1;fontSize=14;strokeColor=#4D4D4D;" parent="1" vertex="1">
                    <mxGeometry x="3310" y="-640" width="80" height="60" as="geometry"/>
                </mxCell>
                <mxCell id="9RpMeYJEBzj-ARkrh1fK-6" value="" style="shape=cylinder3;whiteSpace=wrap;html=1;boundedLbl=1;backgroundOutline=1;size=15;rotation=90;strokeColor=#4D4D4D;" parent="1" vertex="1">
                    <mxGeometry x="3270" y="-760" width="60" height="150" as="geometry"/>
                </mxCell>
                <mxCell id="9RpMeYJEBzj-ARkrh1fK-5" value="Messaging&lt;br style=&quot;font-size: 14px;&quot;&gt;Streaming" style="text;html=1;strokeColor=none;fillColor=none;align=center;verticalAlign=middle;whiteSpace=wrap;rounded=0;fontSize=14;" parent="1" vertex="1">
                    <mxGeometry x="3260" y="-700" width="70" height="30" as="geometry"/>
                </mxCell>
                <mxCell id="9RpMeYJEBzj-ARkrh1fK-13" value="" style="curved=1;endArrow=classic;html=1;rounded=0;exitX=0.75;exitY=0;exitDx=0;exitDy=0;entryX=0.5;entryY=0;entryDx=0;entryDy=0;" parent="1" source="zcIfz7Zv4hoTwlCRy202-12" target="zcIfz7Zv4hoTwlCRy202-12" edge="1">
                    <mxGeometry width="50" height="50" relative="1" as="geometry">
                        <mxPoint x="3220" y="-1000" as="sourcePoint"/>
                        <mxPoint x="3270" y="-1050" as="targetPoint"/>
                        <Array as="points">
                            <mxPoint x="3320" y="-1010"/>
                        </Array>
                    </mxGeometry>
                </mxCell>
                <mxCell id="9RpMeYJEBzj-ARkrh1fK-14" value="" style="curved=1;endArrow=classic;html=1;rounded=0;entryX=0.474;entryY=1.002;entryDx=0;entryDy=0;entryPerimeter=0;exitX=0.75;exitY=1;exitDx=0;exitDy=0;" parent="1" source="zcIfz7Zv4hoTwlCRy202-13" target="zcIfz7Zv4hoTwlCRy202-13" edge="1">
                    <mxGeometry width="50" height="50" relative="1" as="geometry">
                        <mxPoint x="3360" y="-540" as="sourcePoint"/>
                        <mxPoint x="3290" y="-510" as="targetPoint"/>
                        <Array as="points">
                            <mxPoint x="3330" y="-510"/>
                        </Array>
                    </mxGeometry>
                </mxCell>
                <mxCell id="9RpMeYJEBzj-ARkrh1fK-15" value="User Env." style="rounded=0;whiteSpace=wrap;html=1;fontSize=22;fillColor=#f5f5f5;fontColor=#333333;strokeColor=#666666;" parent="1" vertex="1">
                    <mxGeometry x="2500" y="-520" width="140" height="40" as="geometry"/>
                </mxCell>
                <mxCell id="2" value="Ingress" style="text;html=1;strokeColor=none;fillColor=none;align=center;verticalAlign=middle;whiteSpace=wrap;rounded=0;" vertex="1" parent="1">
                    <mxGeometry x="2890" y="-750" width="50" height="20" as="geometry"/>
                </mxCell>
                <mxCell id="4" value="Egress" style="text;html=1;strokeColor=none;fillColor=none;align=center;verticalAlign=middle;whiteSpace=wrap;rounded=0;" vertex="1" parent="1">
                    <mxGeometry x="3060" y="-750" width="50" height="20" as="geometry"/>
                </mxCell>
            </root>
        </mxGraphModel>
    </diagram>
</mxfile>